<?xml version="1.0" encoding="utf-8"?>
<!-- Generator: Adobe Illustrator 25.2.0, SVG Export Plug-In . SVG Version: 6.00 Build 0)  -->
<svg version="1.1" id="Capa_1" xmlns="http://www.w3.org/2000/svg" xmlns:xlink="http://www.w3.org/1999/xlink" x="0px" y="0px"
	 viewBox="0 0 135.6 191.9" style="enable-background:new 0 0 135.6 191.9;" xml:space="preserve">
<style type="text/css">
	.st0{fill:#FFFFFF;}
</style>
<path class="st0" d="M114.7,88.5c1.7-8.6,10.1-8.7,10.8-6.4c1.3,4.1,27.7,106.3-15.7,108c-44.2,1.8-60.4,2.1-82.2-21.5
	c-14.7-16-21.7-29.7-22.9-33C-1.1,119.3,1.2,94,3.1,93.3c4.8-1.9,6.6,2.7,7.2,5.8c1.4,7.3,3.2,24.1,5.3,29.6
	c2.8,7.1,19.8,27.9,20.4,27.3c0.9-0.8-17.2-31.6-19-43.5c-1.4-9.2,8.8-48.2,11.2-48.5c5.1-0.5,7.2,3.7,7,8.8
	c-0.4,10.9-5.3,31.3-4.5,37.6c0.8,6.3,20,40.4,21.1,39.5s-16.3-34.2-14.2-48.1c1.9-13,15.2-51,17.3-51c6.4,0,8.4,6.2,8.1,11.2
	c-0.7,11.2-9.9,37.5-10.4,42.5c-0.6,6.4,13.2,38.6,14.3,37.9c1.3-0.8-6.6-22-5.6-30s11.5-43.6,14.2-43.6c7.4,0,8.7,9.6,8.3,13.4
	c-0.9,7.2-5.8,23-6.1,28.6c-0.4,8.1,5.6,28,14.7,34c3.6,2.4,20.8,3,22.5-5.5S113.4,95.3,114.7,88.5z M103.9,63.3
	c0,0,25.2,3.4,28.7-1s-21.2-66.5-37.5-61S70.6,60.8,70.6,60.8l22.8,3.9c0,0-4.9,62.1-0.3,66.9c4.2,4.5,12.7,3.3,14,0
	C108.9,126.7,103.9,63.3,103.9,63.3z"/>
</svg>
