<?xml version="1.0" encoding="utf-8"?>
<!-- Generator: Adobe Illustrator 25.2.0, SVG Export Plug-In . SVG Version: 6.00 Build 0)  -->
<svg version="1.1" id="Capa_1" xmlns="http://www.w3.org/2000/svg" xmlns:xlink="http://www.w3.org/1999/xlink" x="0px" y="0px"
	 viewBox="0 0 559.2 194.2" style="enable-background:new 0 0 559.2 194.2;" xml:space="preserve">
<style type="text/css">
	.st0{fill:#FFFFFF;}
</style>
<g>
	<path class="st0" d="M461.1,71V1h13.5v58.4h19.7V71H461.1z"/>
	<path class="st0" d="M542,71l-3.9-17.2h-17.5l-4,17.2h-14.1l19.4-70h15.7l18.6,70H542z M530.9,21c-0.3-1.5-0.7-4-1.1-7.4
		c-0.1-0.5-0.1-0.9-0.2-1.4h-0.3c-0.3,2.8-0.8,5.6-1.5,8.4l-5.2,22.6h13.2L530.9,21z"/>
	<path class="st0" d="M53,191.8v-44c0-3.8,0.2-9.5,0.5-17.1h-0.3c-0.5,3.2-1.2,7.4-2.3,12.7l-11,48.4H26.6l-11.5-47.7L13,130.7h-0.4
		c0.4,7.1,0.5,14.1,0.5,21v40.1H1v-75.6h20.4l10.6,46c0.9,3.8,1.6,7.7,1.9,11.6h0.3l0.4-2.8c0.3-3.1,0.7-6.2,1.3-9.3l10-45.6h19.6
		v75.6L53,191.8z"/>
	<path class="st0" d="M118.6,191.8l-4.2-18.6H95.5l-4.3,18.6H76l21-75.6h16.9l20.1,75.6H118.6z M106.6,137.8c-0.4-1.6-0.7-4.3-1.2-8
		c-0.1-0.5-0.1-1-0.3-1.5h-0.3c-0.4,3.1-0.9,6.1-1.6,9.1l-5.6,24.4h14.2L106.6,137.8z"/>
	<path class="st0" d="M177.1,191.8l-16.8-43.1c-0.7-1.8-1.6-4.7-2.7-8.6c-0.3-1-0.5-1.8-0.7-2.4h-0.2c0.2,5.9,0.3,11,0.3,15.4v38.7
		h-12.2v-75.6h16.5l16.8,44.2c0.5,1.4,1.6,5,3.2,10.8h0.1l-0.2-12.4v-42.6h12.1v75.6H177.1z"/>
	<path class="st0" d="M209.6,191.8v-75.6h20.1c21,0,31.5,12.3,31.5,36.9c0,12-2.8,21.5-8.2,28.4c-5.4,6.9-13.2,10.4-23.1,10.4
		L209.6,191.8z M224.1,128.8v50.5h5.9c5.1,0,9-2.3,11.8-6.9s4.2-11,4.2-19.1c0-7.7-1.4-13.7-4.1-18c-2.5-4.2-7.1-6.7-12-6.5H224.1z"
		/>
	<path class="st0" d="M305.5,191.8l-5.4-18.4c-2.1-7.1-4.9-10.6-8.5-10.6h-2.2v29h-14.5v-75.6h21c15.2,0,22.8,6.8,22.8,20.4
		c0,10.3-4.5,17-13.4,20.3v0.3c4,1.4,7.2,5.8,9.6,13.4l6.8,21.2L305.5,191.8z M289.4,128.5v21.9h4.5c2.7,0.1,5.3-1.2,7-3.3
		c1.8-2.3,2.8-5.2,2.7-8.2c0.1-2.8-0.8-5.5-2.5-7.6c-1.6-1.9-4-2.8-7.2-2.8L289.4,128.5z"/>
	<path class="st0" d="M370.3,191.8l-4.2-18.6h-18.9l-4.3,18.6h-15.2l21-75.6h16.9l20.1,75.6H370.3z M358.3,137.8
		c-0.3-1.6-0.7-4.3-1.2-8c-0.1-0.7-0.2-1.2-0.3-1.5h-0.3c-0.4,3.1-0.9,6.1-1.6,9.1l-5.6,24.4h14.2L358.3,137.8z"/>
	<path class="st0" d="M442.6,159.9c0,22.2-7.9,33.3-23.6,33.3s-23.6-10.8-23.6-32.5v-44.5h14.5v46c0,12.1,3.1,18.1,9.2,18.1
		c3,0.1,5.7-1.6,6.8-4.4c1.3-2.9,2-7.4,2-13.4v-46.3h14.6L442.6,159.9z"/>
	<path class="st0" d="M458.4,191.8v-75.6h14.5v63.1h21.3v12.5H458.4z"/>
	<path class="st0" d="M542.8,191.8l-4.2-18.6h-18.9l-4.3,18.6h-15.2l21-75.6h16.9l20.1,75.6H542.8z M530.8,137.8
		c-0.3-1.6-0.8-4.3-1.2-8c-0.1-0.5-0.2-1-0.3-1.5h-0.2c-0.4,3.1-0.9,6.1-1.6,9.1l-5.6,24.4h14.2L530.8,137.8z"/>
	<path class="st0" d="M1.1,4.2h29c7.9,0,13.5,2.3,16.9,7.1c2,2.8,3,6.2,2.9,9.6c0.1,3.8-1.1,7.5-3.6,10.4c-1.5,1.6-3.4,3-5.4,3.9
		c2.8,1,5.5,2.5,7.7,4.4c3,2.9,4.5,7,4.5,12.1c0,4.3-1.4,8.4-4,11.8c-4.1,5.2-10.6,7.9-19.5,7.9H1V4.2H1.1z M26.7,32.6
		c3.9,0,6.9-0.5,9-1.6c3.4-1.7,5.1-4.7,5.1-9.1S39,14.6,35.4,13c-2-0.9-5-1.3-9.1-1.3H9.9v20.8L26.7,32.6L26.7,32.6z M29.8,63.6
		c5.6,0,9.6-1.6,12-4.8c1.6-2.1,2.4-4.7,2.4-7.4c0-4.9-2.2-8.2-6.6-10c-3-1-6.1-1.5-9.3-1.4H10.1v23.6H29.8z"/>
	<path class="st0" d="M127.5,13.8c4.5,5.9,6.7,13.5,6.7,22.8c0,10-2.5,18.4-7.6,25c-6,7.8-14.5,11.7-25.6,11.7
		c-10.3,0-18.5-3.4-24.4-10.2c-5.3-6.6-7.9-14.9-7.9-25c0-9.1,2.3-16.9,6.8-23.3c5.8-8.3,14.3-12.4,25.7-12.4
		C113,2.4,121.8,6.2,127.5,13.8z M119.5,56.6c3.6-6,5.5-12.8,5.4-19.8c0-7.9-2.1-14.3-6.2-19.1s-9.8-7.2-17-7.2
		c-7,0-12.6,2.4-17,7.2s-6.6,11.8-6.6,21.1c0,7.4,1.9,13.7,5.6,18.8s9.9,7.7,18.4,7.7C110.1,65.3,115.9,62.4,119.5,56.6L119.5,56.6z
		"/>
	<path class="st0" d="M153.5,4.2h9.1v59.2h33.7v8h-42.8V4.2z"/>
	<path class="st0" d="M214.9,4.2h48.8v8.2h-39.9v20.4h36.9v7.8h-36.9v22.8h40.5v8h-49.4L214.9,4.2L214.9,4.2z"/>
	<path class="st0" d="M333.7,4.2v8h-22.6v59.2h-9.2V12.2h-22.6v-8H333.7z"/>
	<path class="st0" d="M356.5,49.7c0.1,3.3,1,6.5,2.6,9.3c2.9,4.4,8,6.7,15.4,6.7c3.1,0,6.1-0.5,9-1.5c5.2-1.9,7.8-5.3,7.8-10.2
		c0-3.7-1.1-6.3-3.3-7.8s-5.8-2.8-10.5-4l-8.8-2.1c-5.8-1.3-9.8-2.8-12.2-4.4c-4.1-2.8-6.2-7-6.2-12.6c-0.2-5.6,2-11,6.1-14.9
		s9.8-5.8,17.3-5.8c6.9,0,12.7,1.7,17.5,5.1s7.2,8.8,7.2,16.3h-8.5c-0.2-3-1.2-5.8-2.8-8.3c-2.7-3.5-7.2-5.3-13.5-5.3
		c-5.2,0-8.8,1.1-11.1,3.4c-2.2,2-3.4,4.9-3.4,7.9c-0.2,3,1.4,5.8,4,7.2c1.7,1,5.7,2.2,11.8,3.7l9.1,2.2c3.6,0.7,7.1,2.2,10.2,4.2
		c4.1,3.1,6.2,7.7,6.2,13.7c0,7.5-2.6,12.8-7.9,16c-5.6,3.3-11.9,4.9-18.4,4.8c-8.1,0-14.5-2.1-19.1-6.4s-6.9-10-6.8-17.2
		C348.2,49.7,356.5,49.7,356.5,49.7z"/>
</g>
</svg>
