<?xml version="1.0" encoding="utf-8"?>
<!-- Generator: Adobe Illustrator 25.2.0, SVG Export Plug-In . SVG Version: 6.00 Build 0)  -->
<svg version="1.1" id="Capa_1" xmlns="http://www.w3.org/2000/svg" xmlns:xlink="http://www.w3.org/1999/xlink" x="0px" y="0px"
	 viewBox="0 0 756.8 202.6" style="enable-background:new 0 0 756.8 202.6;" xml:space="preserve">
<style type="text/css">
	.st0{fill:#FFFFFF;}
</style>
<g id="CAPA_JULIA">
	<path class="st0" d="M118.6,96.4c1.7-8.6,10.1-8.7,10.8-6.4c1.3,4.1,27.7,106.3-15.7,108c-44.2,1.8-60.4,2.1-82.2-21.5
		c-14.7-16-21.7-29.7-22.9-33c-5.8-16.3-3.5-41.6-1.6-42.3c4.8-1.9,6.6,2.7,7.2,5.8c1.4,7.3,3.2,24.1,5.3,29.6
		c2.8,7.1,19.8,27.9,20.4,27.3c0.9-0.8-17.2-31.6-19-43.5c-1.4-9.2,8.8-48.2,11.2-48.5c5.1-0.5,7.2,3.7,7,8.8
		c-0.4,10.9-5.3,31.3-4.5,37.6s20,40.4,21.1,39.5s-16.3-34.2-14.2-48.1c1.9-13,15.2-51,17.3-51c6.4,0,8.4,6.2,8.1,11.2
		c-0.7,11.2-9.9,37.5-10.4,42.5c-0.6,6.4,13.2,38.6,14.3,37.9c1.3-0.8-6.6-22-5.6-30s11.5-43.6,14.2-43.6c7.4,0,8.7,9.6,8.3,13.4
		c-0.9,7.2-5.8,23-6.1,28.6c-0.4,8.1,5.6,28,14.7,34c3.6,2.4,20.8,3,22.5-5.5S117.3,103.2,118.6,96.4z M107.8,71.2
		c0,0,25.2,3.4,28.7-1S115.3,3.7,99,9.2S74.5,68.7,74.5,68.7l22.8,3.9c0,0-4.9,62.1-0.3,66.9c4.2,4.5,12.7,3.3,14,0
		C112.8,134.6,107.8,71.2,107.8,71.2z"/>
	<path class="st0" d="M654.8,76.8v-70h13.5v58.4H688v11.6H654.8z"/>
	<path class="st0" d="M735.7,76.8l-3.9-17.2h-17.5l-4,17.2h-14.1l19.4-70h15.7l18.6,70H735.7z M724.6,26.8c-0.3-1.5-0.7-4-1.1-7.4
		c-0.1-0.5-0.1-0.9-0.2-1.4H723c-0.3,2.8-0.8,5.6-1.5,8.4l-5.2,22.6h13.2L724.6,26.8z"/>
	<path class="st0" d="M246.7,197.6v-44c0-3.8,0.2-9.5,0.5-17.1h-0.3c-0.5,3.2-1.2,7.4-2.3,12.7l-11,48.4h-13.3l-11.5-47.7l-2.1-13.4
		h-0.4c0.4,7.1,0.5,14.1,0.5,21v40.1h-12.1V122h20.4l10.6,46c0.9,3.8,1.6,7.7,1.9,11.6h0.3l0.4-2.8c0.3-3.1,0.7-6.2,1.3-9.3l10-45.6
		h19.6v75.6L246.7,197.6z"/>
	<path class="st0" d="M312.3,197.6l-4.2-18.6h-18.9l-4.3,18.6h-15.2l21-75.6h16.9l20.1,75.6H312.3z M300.3,143.6
		c-0.4-1.6-0.7-4.3-1.2-8c-0.1-0.5-0.1-1-0.3-1.5h-0.3c-0.4,3.1-0.9,6.1-1.6,9.1l-5.6,24.4h14.2L300.3,143.6z"/>
	<path class="st0" d="M370.8,197.6L354,154.5c-0.7-1.8-1.6-4.7-2.7-8.6c-0.3-1-0.5-1.8-0.7-2.4h-0.2c0.2,5.9,0.3,11,0.3,15.4v38.7
		h-12.2V122h16.5l16.8,44.2c0.5,1.4,1.6,5,3.2,10.8h0.1l-0.2-12.4V122H387v75.6H370.8z"/>
	<path class="st0" d="M403.3,197.6V122h20.1c21,0,31.5,12.3,31.5,36.9c0,12-2.8,21.5-8.2,28.4s-13.2,10.4-23.1,10.4L403.3,197.6z
		 M417.8,134.6v50.5h5.9c5.1,0,9-2.3,11.8-6.9s4.2-11,4.2-19.1c0-7.7-1.4-13.7-4.1-18c-2.5-4.2-7.1-6.7-12-6.5H417.8z"/>
	<path class="st0" d="M499.2,197.6l-5.4-18.4c-2.1-7.1-4.9-10.6-8.5-10.6h-2.2v29h-14.5V122h21c15.2,0,22.8,6.8,22.8,20.4
		c0,10.3-4.5,17-13.4,20.3v0.3c4,1.4,7.2,5.8,9.6,13.4l6.8,21.2L499.2,197.6z M483.1,134.3v21.9h4.5c2.7,0.1,5.3-1.2,7-3.3
		c1.8-2.3,2.8-5.2,2.7-8.2c0.1-2.8-0.8-5.5-2.5-7.6c-1.6-1.9-4-2.8-7.2-2.8L483.1,134.3z"/>
	<path class="st0" d="M564,197.6l-4.2-18.6h-18.9l-4.3,18.6h-15.2l21-75.6h16.9l20.1,75.6H564z M552,143.6c-0.3-1.6-0.7-4.3-1.2-8
		c-0.1-0.7-0.2-1.2-0.3-1.5h-0.3c-0.4,3.1-0.9,6.1-1.6,9.1l-5.6,24.4h14.2L552,143.6z"/>
	<path class="st0" d="M636.3,165.7c0,22.2-7.9,33.3-23.6,33.3c-15.7,0-23.6-10.8-23.6-32.5V122h14.5v46c0,12.1,3.1,18.1,9.2,18.1
		c3,0.1,5.7-1.6,6.8-4.4c1.3-2.9,2-7.4,2-13.4V122h14.6L636.3,165.7z"/>
	<path class="st0" d="M652.1,197.6V122h14.5v63.1h21.3v12.5H652.1z"/>
	<path class="st0" d="M736.5,197.6l-4.2-18.6h-18.9l-4.3,18.6h-15.2l21-75.6h16.9l20.1,75.6H736.5z M724.5,143.6
		c-0.3-1.6-0.8-4.3-1.2-8c-0.1-0.5-0.2-1-0.3-1.5h-0.2c-0.4,3.1-0.9,6.1-1.6,9.1l-5.6,24.4h14.2L724.5,143.6z"/>
	<path class="st0" d="M194.8,10h29c7.9,0,13.5,2.3,16.9,7.1c2,2.8,3,6.2,2.9,9.6c0.1,3.8-1.1,7.5-3.6,10.4c-1.5,1.6-3.4,3-5.4,3.9
		c2.8,1,5.5,2.5,7.7,4.4c3,2.9,4.5,7,4.5,12.1c0,4.3-1.4,8.4-4,11.8c-4.1,5.2-10.6,7.9-19.5,7.9h-28.6V10z M220.4,38.4
		c3.9,0,6.9-0.5,9-1.6c3.4-1.7,5.1-4.7,5.1-9.1s-1.8-7.3-5.4-8.9c-2-0.9-5-1.3-9.1-1.3h-16.4v20.8H220.4z M223.5,69.4
		c5.6,0,9.6-1.6,12-4.8c1.6-2.1,2.4-4.7,2.4-7.4c0-4.9-2.2-8.2-6.6-10c-3-1-6.1-1.5-9.3-1.4h-18.2v23.6L223.5,69.4z"/>
	<path class="st0" d="M321.2,19.6c4.5,5.9,6.7,13.5,6.7,22.8c0,10-2.5,18.4-7.6,25c-6,7.8-14.5,11.7-25.6,11.7
		c-10.3,0-18.5-3.4-24.4-10.2c-5.3-6.6-7.9-14.9-7.9-25c0-9.1,2.3-16.9,6.8-23.3c5.8-8.3,14.3-12.4,25.7-12.4
		C306.7,8.2,315.5,12,321.2,19.6z M313.2,62.4c3.6-6,5.5-12.8,5.4-19.8c0-7.9-2.1-14.3-6.2-19.1c-4.1-4.8-9.8-7.2-17-7.2
		c-7,0-12.6,2.4-17,7.2s-6.6,11.8-6.6,21.1c0,7.4,1.9,13.7,5.6,18.8s9.9,7.7,18.4,7.7C303.8,71.1,309.6,68.2,313.2,62.4L313.2,62.4z
		"/>
	<path class="st0" d="M347.2,10h9.1v59.2H390v8h-42.8V10z"/>
	<path class="st0" d="M408.6,10h48.8v8.2h-39.9v20.4h36.9v7.8h-36.9v22.8H458v8h-49.4V10z"/>
	<path class="st0" d="M527.4,10v8h-22.6v59.2h-9.2V18H473v-8L527.4,10z"/>
	<path class="st0" d="M550.2,55.5c0.1,3.3,1,6.5,2.6,9.3c2.9,4.4,8,6.7,15.4,6.7c3.1,0,6.1-0.5,9-1.5c5.2-1.9,7.8-5.3,7.8-10.2
		c0-3.7-1.1-6.3-3.3-7.8s-5.8-2.8-10.5-4l-8.8-2.1c-5.8-1.3-9.8-2.8-12.2-4.4c-4.1-2.8-6.2-7-6.2-12.6c-0.2-5.6,2-11,6.1-14.9
		c4.1-3.9,9.8-5.8,17.3-5.8c6.9,0,12.7,1.7,17.5,5.1s7.2,8.8,7.2,16.3h-8.5c-0.2-3-1.2-5.8-2.8-8.3c-2.7-3.5-7.2-5.3-13.5-5.3
		c-5.2,0-8.8,1.1-11.1,3.4c-2.2,2-3.4,4.9-3.4,7.9c-0.2,3,1.4,5.8,4,7.2c1.7,1,5.7,2.2,11.8,3.7l9.1,2.2c3.6,0.7,7.1,2.2,10.2,4.2
		c4.1,3.1,6.2,7.7,6.2,13.7c0,7.5-2.6,12.8-7.9,16c-5.6,3.3-11.9,4.9-18.4,4.8c-8.1,0-14.5-2.1-19.1-6.4s-6.9-10-6.8-17.2H550.2z"/>
</g>
</svg>
